<svg xmlns="http://www.w3.org/2000/svg" xmlns:xlink="http://www.w3.org/1999/xlink" xmlns:fi="http://pattern.flaticon.com/" x="0" y="0" width="4000" height="2000" viewBox="0 0 4000 2000"><rect x="0px" y="0px" width="100%" height="100%" opacity="1" fill="#ffffff"/><defs><g transform="matrix(1.875 0 0 1.875 335 160)" id="L1_385"><path d="M6 0h-6v6h6v-6zM5 5h-4v-4h4v4z" fill="#444444"/><path d="M2 2h2v2h-2v-2z" fill="#444444"/><path d="M0 16h6v-6h-6v6zM1 11h4v4h-4v-4z" fill="#444444"/><path d="M2 12h2v2h-2v-2z" fill="#444444"/><path d="M10 0v6h6v-6h-6zM15 5h-4v-4h4v4z" fill="#444444"/><path d="M12 2h2v2h-2v-2z" fill="#444444"/><path d="M2 7h-2v2h3v-1h-1z" fill="#444444"/><path d="M7 9h2v2h-2v-2z" fill="#444444"/><path d="M3 7h2v1h-2v-1z" fill="#444444"/><path d="M9 12h-2v1h1v1h1v-1z" fill="#444444"/><path d="M6 7v1h-1v1h2v-2z" fill="#444444"/><path d="M8 4h1v2h-1v-2z" fill="#444444"/><path d="M9 8v1h2v-2h-3v1z" fill="#444444"/><path d="M7 6h1v1h-1v-1z" fill="#444444"/><path d="M9 14h2v2h-2v-2z" fill="#444444"/><path d="M7 14h1v2h-1v-2z" fill="#444444"/><path d="M9 11h1v1h-1v-1z" fill="#444444"/><path d="M9 3v-2h-1v-1h-1v4h1v-1z" fill="#444444"/><path d="M12 14h1v2h-1v-2z" fill="#444444"/><path d="M12 12h2v1h-2v-1z" fill="#444444"/><path d="M11 13h1v1h-1v-1z" fill="#444444"/><path d="M10 12h1v1h-1v-1z" fill="#444444"/><path d="M14 10v1h1v1h1v-2h-1z" fill="#444444"/><path d="M15 13h-1v3h2v-2h-1z" fill="#444444"/><path d="M10 10v1h3v-2h-2v1z" fill="#444444"/><path d="M12 7v1h2v1h2v-2h-2z" fill="#444444"/></g><g transform="matrix(1.09375 0 0 1.09375 140 140)" id="L1_386"><path d="m47 2h-30a3.009 3.009 0 0 0 -3 3v54a3.009 3.009 0 0 0 3 3h30a3.009 3.009 0 0 0 3-3v-54a3.009 3.009 0 0 0 -3-3zm-25 2h20v1a1 1 0 0 1 -1 1h-18a1 1 0 0 1 -1-1zm26 55a1 1 0 0 1 -1 1h-30a1 1 0 0 1 -1-1v-54a1 1 0 0 1 1-1h3v1a3.009 3.009 0 0 0 3 3h18a3.009 3.009 0 0 0 3-3v-1h3a1 1 0 0 1 1 1z"/><path d="m32 50a4 4 0 1 0 4 4 4 4 0 0 0 -4-4zm0 6a2 2 0 1 1 2-2 2 2 0 0 1 -2 2z"/><path d="m45 12h-4v2h3v4h2v-5a1 1 0 0 0 -1-1z"/><path d="m20 14h3v-2h-4a1 1 0 0 0 -1 1v5h2z"/><path d="m44 40h-3v2h4a1 1 0 0 0 1-1v-5h-2z"/><path d="m20 36h-2v5a1 1 0 0 0 1 1h4v-2h-3z"/><path d="m22 16h2v2h-2z"/><path d="m27 18h4v4h2v-5a1 1 0 0 0 -1-1h-4v-2h-2v3a1 1 0 0 0 1 1z"/><path d="m29 22v-2h-8a1 1 0 0 0 -1 1v4h2v-3z"/><path d="m28 26h3v-2h-4a1 1 0 0 0 -1 1v3h2z"/><path d="m23 33h4v-2h-3v-3a1 1 0 0 0 -1-1h-3v2h2v3a1 1 0 0 0 1 1z"/><path d="m23 36h2v2h-2z"/><path d="m25 38h2v2h-2z"/><path d="m42 20v-4a1 1 0 0 0 -1-1h-6v2h5v2h-5v2h6a1 1 0 0 0 1-1z"/><path d="m45 32v-8a1 1 0 0 0 -1-1h-9v2h8v6h-4v2h5a1 1 0 0 0 1-1z"/><path d="m36 29h5v-2h-6a1 1 0 0 0 -1 1v4h2z"/><path d="m33 30v-2h-2v1h-2v2h3a1 1 0 0 0 1-1z"/><path d="m36 38h-3v-3a1 1 0 0 0 -1-1h-5v2h4v3a1 1 0 0 0 1 1h5a1 1 0 0 0 1-1v-5h-2z"/><path d="m40 36h2v2h-2z"/></g><path d="M165,0C74.019,0,0,74.019,0,165s74.019,165,165,165c90.982,0,165-74.019,165-165S255.982,0,165,0z" transform="matrix(0.03030303120613098 0 0 0.03030303120613098 257.5 257.5)" id="L1_387" fill="#2d1b79"/><g transform="matrix(0.10080645233392715 0 0 0.10080645233392715 150 325)" id="L1_389"><path d="M416,80H80v128H0v16h80v192h336V224h80v-16h-80V80z M192,128h32v16h-32V128z M96,96h80v80H96V96z M176,400H96v-80h80V400     z M128,304v-16h16v16H128z M400,400H192v-96h-32v-32h-48v32H96v-80h16v32h48v-32h32v32h80v-32h32v96h80v-48h-32v-16h32v-32h16     V400z M128,240v-16h16v16H128z M256,224v16h-48v-16h32H256z M240,208v-16h16v16H240z M368,288v16h-48v-80h48v16h-32v48H368z      M400,208h-16h-80h-32v-32h-48v32h-32h-32h-48H96v-16h96v-32h48v-48h-48V96h112v16h-32v48h32v32h96V208z M304,128v16h-16v-16H304     z M400,176h-80V96h80V176z"/><path d="M112,160h48v-48h-48V160z M128,128h16v16h-16V128z"/><path d="M160,336h-48v48h48V336z M144,368h-16v-16h16V368z"/><path d="M384,112h-48v48h48V112z M368,144h-16v-16h16V144z"/><path d="M208,320h32v16h-32v48h80V272h-80V320z M224,288h48v80h-48v-16h32v-48h-32V288z"/><path d="M304,384h80v-48h-80V384z M320,352h48v16h-48V352z"/><path d="M16,16 136,16 136,0 0,0 0,136 16,136z"/><path d="M48,136 48,48 136,48 136,32 32,32 32,136z"/><path d="M48,360 32,360 32,464 136,464 136,448 48,448z"/><path d="M16,360 0,360 0,496 136,496 136,480 16,480z"/><path d="M448,136 464,136 464,32 360,32 360,48 448,48z"/><path d="M360,0 360,16 480,16 480,136 496,136 496,0z"/><path d="M480,480 360,480 360,496 496,496 496,360 480,360z"/><path d="M448,360 448,448 360,448 360,464 464,464 464,360z"/></g></defs><g fi:class="KUsePattern"><pattern id="pattern_L1_385" width="350" height="350" patternUnits="userSpaceOnUse"><use xlink:href="#L1_385" x="-350" y="-350"/><use xlink:href="#L1_385" x="0" y="-350"/><use xlink:href="#L1_385" x="350" y="-350"/><use xlink:href="#L1_385" x="-350" y="0"/><use xlink:href="#L1_385" x="0" y="0"/><use xlink:href="#L1_385" x="350" y="0"/><use xlink:href="#L1_385" x="-350" y="350"/><use xlink:href="#L1_385" x="0" y="350"/><use xlink:href="#L1_385" x="350" y="350"/></pattern><rect x="0" y="0" width="100%" height="100%" fill="url(#pattern_L1_385)"/></g><g fi:class="KUsePattern"><pattern id="pattern_L1_386" width="350" height="350" patternUnits="userSpaceOnUse"><use xlink:href="#L1_386" x="-350" y="-350"/><use xlink:href="#L1_386" x="0" y="-350"/><use xlink:href="#L1_386" x="350" y="-350"/><use xlink:href="#L1_386" x="-350" y="0"/><use xlink:href="#L1_386" x="0" y="0"/><use xlink:href="#L1_386" x="350" y="0"/><use xlink:href="#L1_386" x="-350" y="350"/><use xlink:href="#L1_386" x="0" y="350"/><use xlink:href="#L1_386" x="350" y="350"/></pattern><rect x="0" y="0" width="100%" height="100%" fill="url(#pattern_L1_386)"/></g><g fi:class="KUsePattern"><pattern id="pattern_L1_387" width="350" height="350" patternUnits="userSpaceOnUse"><use xlink:href="#L1_387" x="-350" y="-350"/><use xlink:href="#L1_387" x="0" y="-350"/><use xlink:href="#L1_387" x="350" y="-350"/><use xlink:href="#L1_387" x="-350" y="0"/><use xlink:href="#L1_387" x="0" y="0"/><use xlink:href="#L1_387" x="350" y="0"/><use xlink:href="#L1_387" x="-350" y="350"/><use xlink:href="#L1_387" x="0" y="350"/><use xlink:href="#L1_387" x="350" y="350"/></pattern><rect x="0" y="0" width="100%" height="100%" fill="url(#pattern_L1_387)"/></g><g fi:class="KUsePattern"><pattern id="pattern_L1_389" width="350" height="350" patternUnits="userSpaceOnUse"><use xlink:href="#L1_389" x="-350" y="-350"/><use xlink:href="#L1_389" x="0" y="-350"/><use xlink:href="#L1_389" x="350" y="-350"/><use xlink:href="#L1_389" x="-350" y="0"/><use xlink:href="#L1_389" x="0" y="0"/><use xlink:href="#L1_389" x="350" y="0"/><use xlink:href="#L1_389" x="-350" y="350"/><use xlink:href="#L1_389" x="0" y="350"/><use xlink:href="#L1_389" x="350" y="350"/></pattern><rect x="0" y="0" width="100%" height="100%" fill="url(#pattern_L1_389)"/></g></svg>